<svg xmlns="http://www.w3.org/2000/svg" width="19.874" height="15.899" viewBox="0 0 19.874 15.899">
  <path id="DanhMucHeThong" d="M3.975,10.931H.994A.994.994,0,0,0,0,11.924v2.981a.994.994,0,0,0,.994.994H3.975a.994.994,0,0,0,.994-.994V11.924A.994.994,0,0,0,3.975,10.931ZM3.229,8.446H9.192V9.937h1.491V8.446h5.962V9.937h1.491V8.149a1.194,1.194,0,0,0-1.193-1.193h-6.26V4.968h1.242a.994.994,0,0,0,.994-.994V.994A.994.994,0,0,0,11.924,0H7.95a.994.994,0,0,0-.994.994V3.975a.994.994,0,0,0,.994.994H9.192V6.956H2.932A1.194,1.194,0,0,0,1.739,8.149V9.937H3.229Zm8.2,2.484H8.446a.994.994,0,0,0-.994.994v2.981a.994.994,0,0,0,.994.994h2.981a.994.994,0,0,0,.994-.994V11.924A.994.994,0,0,0,11.427,10.931Zm7.453,0H15.9a.994.994,0,0,0-.994.994v2.981a.994.994,0,0,0,.994.994H18.88a.994.994,0,0,0,.994-.994V11.924A.994.994,0,0,0,18.88,10.931Z"/>
</svg>
