<svg xmlns="http://www.w3.org/2000/svg" width="19.874" height="22.713" viewBox="0 0 19.874 22.713">
  <path id="LichSuDanhGia" d="M17.744,2.839H15.615V.532A.532.532,0,0,0,15.083,0H13.308a.532.532,0,0,0-.532.532V2.839H7.1V.532A.532.532,0,0,0,6.565,0H4.791a.532.532,0,0,0-.532.532V2.839H2.129A2.129,2.129,0,0,0,0,4.968V20.584a2.129,2.129,0,0,0,2.129,2.129H17.744a2.129,2.129,0,0,0,2.129-2.129V4.968A2.129,2.129,0,0,0,17.744,2.839Zm-.266,17.745H2.4a.266.266,0,0,1-.266-.266V7.1H17.744v13.22a.266.266,0,0,1-.266.266Zm-2.344-8.9L8.821,17.945a.532.532,0,0,1-.753,0L4.737,14.584a.532.532,0,0,1,0-.753l1.008-1a.532.532,0,0,1,.753,0l1.957,1.972,4.927-4.888a.532.532,0,0,1,.753,0l1,1.008a.532.532,0,0,1,0,.753Z"/>
</svg>
