<svg xmlns="http://www.w3.org/2000/svg" width="19.874" height="19.874" viewBox="0 0 19.874 19.874">
  <path id="LichSuBaoCao" d="M27.874,17.918A9.937,9.937,0,0,1,11.7,25.674a.961.961,0,0,1-.074-1.427l.451-.451a.963.963,0,0,1,1.278-.079,7.373,7.373,0,1,0-.471-11.151L14.919,14.6a.641.641,0,0,1-.453,1.094H8.641A.641.641,0,0,1,8,15.052V9.227a.641.641,0,0,1,1.094-.453l1.978,1.978a9.937,9.937,0,0,1,16.8,7.166Zm-7.249,3.157.394-.506a.962.962,0,0,0-.169-1.349l-1.631-1.268V13.77a.962.962,0,0,0-.962-.962h-.641a.962.962,0,0,0-.962.962v5.435l2.621,2.038A.962.962,0,0,0,20.625,21.075Z" transform="translate(-8 -8)"/>
</svg>
