<svg xmlns="http://www.w3.org/2000/svg" width="19.874" height="19.874" viewBox="0 0 19.874 19.874">
  <g id="LichSuKhaoSat" transform="translate(-258 -2860.563)">
    <path id="history-solid" d="M27.874,17.918A9.937,9.937,0,0,1,11.7,25.674a.961.961,0,0,1-.074-1.427l.451-.451a.963.963,0,0,1,1.278-.079,7.373,7.373,0,1,0-.471-11.151L14.919,14.6a.641.641,0,0,1-.453,1.094H8.641A.641.641,0,0,1,8,15.052V9.227a.641.641,0,0,1,1.094-.453l1.978,1.978a9.937,9.937,0,0,1,16.8,7.166Z" transform="translate(250 2852.563)"/>
    <path id="Path_4549" data-name="Path 4549" d="M1.473-4.047a2.218,2.218,0,0,0,.1.685,1.442,1.442,0,0,0,.282.513,1.2,1.2,0,0,0,.452.32,1.593,1.593,0,0,0,.611.11,1.57,1.57,0,0,0,.606-.11,1.2,1.2,0,0,0,.45-.32,1.442,1.442,0,0,0,.282-.513,2.218,2.218,0,0,0,.1-.685,2.206,2.206,0,0,0-.1-.681,1.443,1.443,0,0,0-.282-.513,1.216,1.216,0,0,0-.45-.322,1.549,1.549,0,0,0-.606-.112,1.571,1.571,0,0,0-.611.112,1.213,1.213,0,0,0-.452.322,1.442,1.442,0,0,0-.282.513A2.206,2.206,0,0,0,1.473-4.047ZM5.85-.538H4.876A1.211,1.211,0,0,1,4.5-.593a.767.767,0,0,1-.31-.2L3.556-1.5a2.934,2.934,0,0,1-.641.067,2.853,2.853,0,0,1-1.086-.2,2.48,2.48,0,0,1-.839-.552,2.468,2.468,0,0,1-.539-.828,2.742,2.742,0,0,1-.191-1.03,2.742,2.742,0,0,1,.191-1.03A2.449,2.449,0,0,1,.991-5.9a2.493,2.493,0,0,1,.839-.55,2.853,2.853,0,0,1,1.086-.2A2.818,2.818,0,0,1,4-6.451a2.5,2.5,0,0,1,.835.552,2.462,2.462,0,0,1,.538.826,2.733,2.733,0,0,1,.191,1.026,2.866,2.866,0,0,1-.068.632,2.662,2.662,0,0,1-.2.569,2.428,2.428,0,0,1-.315.494,2.358,2.358,0,0,1-.425.4Zm.981-1a.634.634,0,0,1-.1.168.613.613,0,0,1-.137.123.591.591,0,0,1-.161.074.616.616,0,0,1-.17.025H5.8L7.79-6.369A.561.561,0,0,1,8-6.642a.591.591,0,0,1,.333-.095H8.8Zm4.906-1.908-.473-1.4q-.053-.133-.112-.313t-.119-.39q-.053.214-.112.4t-.112.315l-.469,1.39Zm1.88,1.951H12.7a.4.4,0,0,1-.249-.072.456.456,0,0,1-.144-.184l-.3-.889h-1.94l-.3.889a.426.426,0,0,1-.138.177.386.386,0,0,1-.247.079H8.455L10.43-6.6h1.212Z" transform="translate(257.739 2876.074)"/>
  </g>
</svg>
