<svg xmlns="http://www.w3.org/2000/svg" width="19.874" height="19.816" viewBox="0 0 19.874 19.816">
  <g id="PhanLoaiSuCo" transform="translate(82 -3025)">
    <path id="search-solid" d="M9.353,8.2,7.506,6.352a.444.444,0,0,0-.315-.13h-.3a3.85,3.85,0,1,0-.667.667v.3a.444.444,0,0,0,.13.315L8.2,9.353a.443.443,0,0,0,.628,0l.524-.524A.447.447,0,0,0,9.353,8.2Zm-5.5-1.976A2.371,2.371,0,1,1,6.223,3.852,2.369,2.369,0,0,1,3.852,6.223Z" transform="translate(-78.546 3027.456)"/>
    <path id="file" d="M19.144,15.924,14.8,19.17a2.96,2.96,0,0,1-1.754.546H2.484C1.113,19.712,0,18.88,0,17.855V1.757C0,.732,1.113-.1,2.484-.1H17.39c1.372,0,2.484.832,2.484,1.857V14.608A1.668,1.668,0,0,1,19.144,15.924Zm-1.956-1.165H13.249V17.7Zm-14.7-13v16.1h8.281V13.83c0-.515.554-.929,1.242-.929H17.39V1.757Z" transform="translate(-82 3025.1)"/>
  </g>
</svg>
