<svg xmlns="http://www.w3.org/2000/svg" width="19.874" height="19.874" viewBox="0 0 19.874 19.874">
  <path id="TaoBaoCao" d="M15.615,41.227v1.42a.534.534,0,0,1-.532.532h-3.9v3.9a.534.534,0,0,1-.532.532H9.227a.534.534,0,0,1-.532-.532v-3.9h-3.9a.534.534,0,0,1-.532-.532v-1.42a.534.534,0,0,1,.532-.532h3.9v-3.9a.534.534,0,0,1,.532-.532h1.42a.534.534,0,0,1,.532.532v3.9h3.9A.534.534,0,0,1,15.615,41.227Zm4.259-7.1V49.744a2.13,2.13,0,0,1-2.129,2.129H2.129A2.13,2.13,0,0,1,0,49.744V34.129A2.13,2.13,0,0,1,2.129,32H17.744A2.13,2.13,0,0,1,19.874,34.129ZM17.744,49.478V34.4a.267.267,0,0,0-.266-.266H2.4a.267.267,0,0,0-.266.266V49.478a.267.267,0,0,0,.266.266H17.478A.267.267,0,0,0,17.744,49.478Z" transform="translate(0 -32)"/>
</svg>
