<svg xmlns="http://www.w3.org/2000/svg" width="19.874" height="17.669" viewBox="0 0 19.874 17.669">
  <path id="TaoDanhGia" d="M13.881,11.828l1.1-1.1a.277.277,0,0,1,.473.2v5.017A1.657,1.657,0,0,1,13.8,17.594H1.656A1.657,1.657,0,0,1,0,15.937V3.792A1.657,1.657,0,0,1,1.656,2.136h9.437a.278.278,0,0,1,.2.473l-1.1,1.1a.274.274,0,0,1-.2.079H1.656V15.937H13.8V12.021A.271.271,0,0,1,13.881,11.828Zm5.4-6.963-9.061,9.061L7.1,14.271A1.425,1.425,0,0,1,5.531,12.7l.345-3.119L14.937.518a2.014,2.014,0,0,1,2.853,0l1.491,1.491a2.021,2.021,0,0,1,0,2.857ZM15.875,5.931l-2-2L7.46,10.341l-.252,2.253,2.253-.252Zm2.236-2.75L16.621,1.691a.36.36,0,0,0-.511,0L15.044,2.757l2,2L18.115,3.7A.368.368,0,0,0,18.111,3.181Z" transform="translate(0 0.075)"/>
</svg>
