<svg xmlns="http://www.w3.org/2000/svg" width="19.874" height="14.905" viewBox="0 0 19.874 14.905">
  <path id="ThongKeKhaoSat" d="M19.253,76.421H2.484v-11.8A.621.621,0,0,0,1.863,64H.621A.621.621,0,0,0,0,64.621V77.663a1.242,1.242,0,0,0,1.242,1.242H19.253a.621.621,0,0,0,.621-.621V77.042A.621.621,0,0,0,19.253,76.421ZM18.011,65.242H13.428a.932.932,0,0,0-.659,1.59l1.258,1.258-2.848,2.848L8.331,68.09a1.242,1.242,0,0,0-1.756,0L3.908,70.757a.621.621,0,0,0,0,.878l.878.878a.621.621,0,0,0,.878,0l1.788-1.788L10.3,73.573a1.242,1.242,0,0,0,1.756,0l3.726-3.726L17.041,71.1a.932.932,0,0,0,1.59-.659V65.863A.62.62,0,0,0,18.011,65.242Z" transform="translate(0 -64)"/>
</svg>
