<svg xmlns="http://www.w3.org/2000/svg" width="19.874" height="19.874" viewBox="0 0 19.874 19.874">
  <path id="ThongKeBaoCao" d="M15.4,78.905h.869c.248,0,.5-.331.5-.662V66.319c0-.331-.248-.662-.5-.662H15.4c-.248,0-.5.331-.5.662V78.243C14.905,78.574,15.154,78.905,15.4,78.905Zm-7.453,0h.869c.248,0,.5-.331.5-.662V67.975c0-.331-.248-.662-.5-.662H7.95c-.248,0-.5.331-.5.662V78.243C7.453,78.574,7.7,78.905,7.95,78.905Zm3.726,0h.869c.248,0,.5-.331.5-.662V71.287c0-.331-.248-.662-.5-.662h-.869c-.248,0-.5.331-.5.662v6.956C11.179,78.574,11.427,78.905,11.676,78.905Zm7.577,2.484H1.863V64.828c0-.458-.278-.828-.621-.828H.621C.278,64,0,64.371,0,64.828V82.218c0,.915.556,1.656,1.242,1.656H19.253c.343,0,.621-.371.621-.828v-.828C19.874,81.76,19.6,81.389,19.253,81.389ZM4.223,78.905h.869c.248,0,.5-.331.5-.662V74.6c0-.331-.248-.662-.5-.662H4.223c-.248,0-.5.331-.5.662v3.644C3.726,78.574,3.975,78.905,4.223,78.905Z" transform="translate(0 -64)"/>
</svg>
