<svg id="ThongKeDanhGia" xmlns="http://www.w3.org/2000/svg" width="19.874" height="19.824" viewBox="0 0 19.874 19.824">
  <g id="Group_49" data-name="Group 49">
    <path id="Path_2332" data-name="Path 2332" d="M14.813,10.966h7.1A9.974,9.974,0,0,0,13,2.05v7.1A3.023,3.023,0,0,1,14.813,10.966Zm.179-6.4a8.087,8.087,0,0,1,4.4,4.4H15.979a5.138,5.138,0,0,0-.986-.986Z" transform="translate(-2.042 -2.05)"/>
    <path id="Path_2333" data-name="Path 2333" d="M2,11.962a9.961,9.961,0,0,0,8.966,9.912v-7.1a2.977,2.977,0,0,1,0-5.618V2.05A9.961,9.961,0,0,0,2,11.962ZM8.973,4.57V8a4.951,4.951,0,0,0,0,7.94v3.427a7.982,7.982,0,0,1,0-14.793Z" transform="translate(-2 -2.05)"/>
    <path id="Path_2334" data-name="Path 2334" d="M13,14.813v7.1A9.974,9.974,0,0,0,21.916,13h-7.1A3.023,3.023,0,0,1,13,14.813Zm1.992,1.166a4.87,4.87,0,0,0,.986-.986H19.4a8.087,8.087,0,0,1-4.4,4.4Z" transform="translate(-2.042 -2.092)"/>
  </g>
</svg>
