<svg xmlns="http://www.w3.org/2000/svg" width="19.874" height="19.876" viewBox="0 0 19.874 19.876">
  <path id="XacNhanDanhGia" d="M19.554,6.761,18.017,5.224a.928.928,0,0,0-1.316,0l-9.3,9.3L3.08,10.192a.928.928,0,0,0-1.316,0L.224,11.733a.932.932,0,0,0,0,1.32l6.521,6.525a.928.928,0,0,0,1.316,0L19.55,8.081A.936.936,0,0,0,19.554,6.761ZM6.966,10.875a.616.616,0,0,0,.877,0l8.074-8.081a.623.623,0,0,0,0-.877L14.162.158a.616.616,0,0,0-.877,0L7.4,6.039,5.254,3.885a.616.616,0,0,0-.877,0L2.619,5.643a.623.623,0,0,0,0,.877l4.347,4.355Z" transform="translate(0.05 0.025)"/>
</svg>
