<svg xmlns="http://www.w3.org/2000/svg" width="151" height="33.719" viewBox="0 0 151 33.719">
  <g id="Group_2946" data-name="Group 2946" transform="translate(-8 -7)">
    <text id="ePatientSafety" transform="translate(44 29)" font-size="17" font-family="Spantaran"><tspan x="0" y="0">ePatientSafety</tspan></text>
    <g id="Group_2887" data-name="Group 2887" transform="translate(-601.471 -65)">
      <g id="Group_2886" data-name="Group 2886" transform="translate(609.471 72)">
        <path id="Path_4499" data-name="Path 4499" d="M4474.358,1615.992l-14.5,4.139v5.932a26.49,26.49,0,0,0,13.867,23.305l.633.343.632-.343a26.49,26.49,0,0,0,13.867-23.305v-5.932Z" transform="translate(-4459.859 -1615.992)" fill="#009bdc"/>
        <path id="Path_4500" data-name="Path 4500" d="M5860.56,1620.131v5.932a26.49,26.49,0,0,1-13.868,23.305l-.633.343v-33.719Z" transform="translate(-5831.56 -1615.992)" fill="#1169b0"/>
      </g>
      <path id="Path_4539" data-name="Path 4539" d="M319.7,111.093a2.528,2.528,0,0,0-1.857-.721l-10.633-.011-3.433,14.923h0l0,.019.159,0a3.821,3.821,0,0,0,2.457-.927,3.985,3.985,0,0,0,1.435-2.24l.615-2.658,7.363.008a3.484,3.484,0,0,0,2.385-.7,4.668,4.668,0,0,0,1.488-2.442l.646-2.764a3.968,3.968,0,0,0,.08-.68A2.415,2.415,0,0,0,319.7,111.093Zm-3.319,5.085-7.173-.008.581-2.5,7.173.008Z" transform="translate(311.877 -28.972)" fill="#fff"/>
    </g>
  </g>
</svg>
